<svg version="1.2" xmlns="http://www.w3.org/2000/svg" viewBox="0 0 32 32" width="32" height="32">
	<title>COIN-svg</title>
	<defs>
		<linearGradient id="g1" x1="2.8" y1="4.6" x2="15.7" y2="30.4" gradientUnits="userSpaceOnUse">
			<stop offset="0" stop-color="#58ff82"/>
			<stop offset=".2" stop-color="#00ffed"/>
			<stop offset=".4" stop-color="#00a8ff"/>
			<stop offset=".6" stop-color="#005cfc"/>
			<stop offset=".8" stop-color="#550ba9"/>
			<stop offset="1" stop-color="#9157ff"/>
		</linearGradient>
		<linearGradient id="g2" x1="21.4" y1="-4.7" x2="34.3" y2="21.1" gradientUnits="userSpaceOnUse">
			<stop offset="0" stop-color="#58ff82"/>
			<stop offset=".2" stop-color="#00ffed"/>
			<stop offset=".4" stop-color="#00a8ff"/>
			<stop offset=".6" stop-color="#005cfc"/>
			<stop offset=".8" stop-color="#550ba9"/>
			<stop offset="1" stop-color="#9157ff"/>
		</linearGradient>
		<linearGradient id="g3" x1="2.7" y1="4.7" x2="15.6" y2="30.5" gradientUnits="userSpaceOnUse">
			<stop offset="0" stop-color="#58ff82"/>
			<stop offset=".2" stop-color="#00ffed"/>
			<stop offset=".4" stop-color="#00a8ff"/>
			<stop offset=".6" stop-color="#005cfc"/>
			<stop offset=".8" stop-color="#550ba9"/>
			<stop offset="1" stop-color="#9157ff"/>
		</linearGradient>
		<linearGradient id="g4" x1="19.9" y1="-4" x2="32.9" y2="21.8" gradientUnits="userSpaceOnUse">
			<stop offset="0" stop-color="#58ff82"/>
			<stop offset=".2" stop-color="#00ffed"/>
			<stop offset=".4" stop-color="#00a8ff"/>
			<stop offset=".6" stop-color="#005cfc"/>
			<stop offset=".8" stop-color="#550ba9"/>
			<stop offset="1" stop-color="#9157ff"/>
		</linearGradient>
		<linearGradient id="g5" x1="3.5" y1="4.2" x2="16.5" y2="30" gradientUnits="userSpaceOnUse">
			<stop offset="0" stop-color="#58ff82"/>
			<stop offset=".2" stop-color="#00ffed"/>
			<stop offset=".4" stop-color="#00a8ff"/>
			<stop offset=".6" stop-color="#005cfc"/>
			<stop offset=".8" stop-color="#550ba9"/>
			<stop offset="1" stop-color="#9157ff"/>
		</linearGradient>
		<linearGradient id="g6" x1="3.2" y1="4.4" x2="16.1" y2="30.2" gradientUnits="userSpaceOnUse">
			<stop offset="0" stop-color="#58ff82"/>
			<stop offset=".2" stop-color="#00ffed"/>
			<stop offset=".4" stop-color="#00a8ff"/>
			<stop offset=".6" stop-color="#005cfc"/>
			<stop offset=".8" stop-color="#550ba9"/>
			<stop offset="1" stop-color="#9157ff"/>
		</linearGradient>
		<linearGradient id="g7" x1="3.6" y1="4.2" x2="16.5" y2="30" gradientUnits="userSpaceOnUse">
			<stop offset="0" stop-color="#58ff82"/>
			<stop offset=".2" stop-color="#00ffed"/>
			<stop offset=".4" stop-color="#00a8ff"/>
			<stop offset=".6" stop-color="#005cfc"/>
			<stop offset=".8" stop-color="#550ba9"/>
			<stop offset="1" stop-color="#9157ff"/>
		</linearGradient>
		<linearGradient id="g8" x1="8" y1="2" x2="20.9" y2="27.8" gradientUnits="userSpaceOnUse">
			<stop offset="0" stop-color="#58ff82"/>
			<stop offset=".2" stop-color="#00ffed"/>
			<stop offset=".4" stop-color="#00a8ff"/>
			<stop offset=".6" stop-color="#005cfc"/>
			<stop offset=".8" stop-color="#550ba9"/>
			<stop offset="1" stop-color="#9157ff"/>
		</linearGradient>
		<linearGradient id="g9" x1="4.1" y1="4" x2="17" y2="29.8" gradientUnits="userSpaceOnUse">
			<stop offset="0" stop-color="#58ff82"/>
			<stop offset=".2" stop-color="#00ffed"/>
			<stop offset=".4" stop-color="#00a8ff"/>
			<stop offset=".6" stop-color="#005cfc"/>
			<stop offset=".8" stop-color="#550ba9"/>
			<stop offset="1" stop-color="#9157ff"/>
		</linearGradient>
		<linearGradient id="g10" x1="7.2" y1="2.4" x2="20.1" y2="28.2" gradientUnits="userSpaceOnUse">
			<stop offset="0" stop-color="#58ff82"/>
			<stop offset=".2" stop-color="#00ffed"/>
			<stop offset=".4" stop-color="#00a8ff"/>
			<stop offset=".6" stop-color="#005cfc"/>
			<stop offset=".8" stop-color="#550ba9"/>
			<stop offset="1" stop-color="#9157ff"/>
		</linearGradient>
		<linearGradient id="g11" x1="4.7" y1="3.6" x2="17.6" y2="29.4" gradientUnits="userSpaceOnUse">
			<stop offset="0" stop-color="#58ff82"/>
			<stop offset=".2" stop-color="#00ffed"/>
			<stop offset=".4" stop-color="#00a8ff"/>
			<stop offset=".6" stop-color="#005cfc"/>
			<stop offset=".8" stop-color="#550ba9"/>
			<stop offset="1" stop-color="#9157ff"/>
		</linearGradient>
		<linearGradient id="g12" x1="6.4" y1="2.8" x2="19.4" y2="28.6" gradientUnits="userSpaceOnUse">
			<stop offset="0" stop-color="#58ff82"/>
			<stop offset=".2" stop-color="#00ffed"/>
			<stop offset=".4" stop-color="#00a8ff"/>
			<stop offset=".6" stop-color="#005cfc"/>
			<stop offset=".8" stop-color="#550ba9"/>
			<stop offset="1" stop-color="#9157ff"/>
		</linearGradient>
		<linearGradient id="g13" x1="6" y1="3" x2="18.9" y2="28.8" gradientUnits="userSpaceOnUse">
			<stop offset="0" stop-color="#58ff82"/>
			<stop offset=".2" stop-color="#00ffed"/>
			<stop offset=".4" stop-color="#00a8ff"/>
			<stop offset=".6" stop-color="#005cfc"/>
			<stop offset=".8" stop-color="#550ba9"/>
			<stop offset="1" stop-color="#9157ff"/>
		</linearGradient>
		<linearGradient id="g14" x1="6" y1="3" x2="18.9" y2="28.8" gradientUnits="userSpaceOnUse">
			<stop offset="0" stop-color="#58ff82"/>
			<stop offset=".2" stop-color="#00ffed"/>
			<stop offset=".4" stop-color="#00a8ff"/>
			<stop offset=".6" stop-color="#005cfc"/>
			<stop offset=".8" stop-color="#550ba9"/>
			<stop offset="1" stop-color="#9157ff"/>
		</linearGradient>
	</defs>
	<style>
		.s0 { opacity: .1;fill: url(#g1) } 
		.s1 { opacity: .1;fill: url(#g2) } 
		.s2 { opacity: .1;fill: url(#g3) } 
		.s3 { opacity: .1;fill: url(#g4) } 
		.s4 { opacity: .1;fill: url(#g5) } 
		.s5 { opacity: .1;fill: url(#g6) } 
		.s6 { opacity: .2;fill: url(#g7) } 
		.s7 { opacity: .2;fill: url(#g8) } 
		.s8 { opacity: .4;fill: url(#g9) } 
		.s9 { opacity: .4;fill: url(#g10) } 
		.s10 { opacity: .6;fill: url(#g11) } 
		.s11 { opacity: .6;fill: url(#g12) } 
		.s12 { opacity: .8;fill: url(#g13) } 
		.s13 { fill: url(#g14) } 
		.s14 { fill: #1b2342 } 
	</style>
	<path id="Layer" class="s0" d="m19.3 30.9q-0.4 0.1-0.8 0.2-1.3-0.4-2.5-1.2-1.2 0.8-2.5 1.2-0.4-0.1-0.8-0.2c1.1-0.2 2.2-0.7 3.2-1.4q0.1 0 0.2 0c1 0.7 2.1 1.2 3.2 1.4z"/>
	<path id="Layer" class="s1" d="m24.3 3.1q0.4 0.3 0.7 0.6l5.8 8.3q0.1 0.5 0.2 1z"/>
	<path id="Layer" class="s2" d="m1 13q0.1-0.5 0.2-1l5.8-8.3q0.3-0.3 0.7-0.6z"/>
	<path id="Layer" class="s3" d="m21.1 1.6q0.4 0.1 0.8 0.3 0.5 0.5 0.8 1l8.6 12.5q0 0.3 0 0.6 0 0 0 0l-8.9-12.9q-0.5-0.9-1.3-1.5z"/>
	<path id="Layer" class="s4" d="m0.7 16q0-0.3 0-0.6l8.6-12.5q0.3-0.5 0.8-1 0.4-0.2 0.8-0.3-0.8 0.6-1.3 1.5l-8.9 12.9q0 0 0 0z"/>
	<path id="Layer" class="s5" d="m22.2 30q-0.3 0.1-0.6 0.2l-1.9-0.4c-1.4-0.2-2.6-0.9-3.7-1.8-1.1 1-2.3 1.6-3.7 1.8l-1.9 0.4q-0.3-0.1-0.6-0.2l2.4-0.5c1.4-0.3 2.7-0.9 3.7-1.8 0.1-0.1 0.2-0.1 0.2 0 1.1 0.9 2.3 1.5 3.7 1.8z"/>
	<path id="Layer" class="s6" d="m24.2 28.9q-0.2 0.1-0.4 0.3l-3.8-0.8c-1.6-0.3-3-1.2-4-2.5-1 1.3-2.4 2.2-4 2.5l-3.8 0.8q-0.2-0.2-0.4-0.3l4.1-0.8c1.6-0.4 3-1.3 4-2.6q0 0 0 0c0.1-0.1 0.2-0.1 0.2 0 1 1.3 2.4 2.2 4 2.6z"/>
	<path id="Layer" class="s7" d="m0.9 18.4q0-0.3-0.1-0.5l9.7-14.2q0.7-1 1.7-1.7c3.1-2.1 7.2-1.3 9.3 1.7l9.7 14.2q-0.1 0.2-0.1 0.5l-9.9-14.5q-0.7-0.9-1.6-1.6c-2.9-2-6.8-1.3-8.8 1.6z"/>
	<path id="Layer" class="s8" d="m25.8 27.7q-0.1 0.2-0.3 0.3l-5.2-1.1c-1.4-0.2-2.5-1-3.3-2.2l-1-1.5-1 1.5c-0.8 1.2-1.9 2-3.3 2.2l-5.2 1.1q-0.2-0.1-0.3-0.3 0.1 0 0.2 0l5.2-1.1c1.3-0.2 2.4-1 3.1-2l1.2-1.8q0 0 0 0c0.1-0.1 0.2 0 0.2 0l1.2 1.8c0.7 1 1.8 1.8 3.1 2l5.2 1.1q0.1 0 0.2 0z"/>
	<path id="Layer" class="s9" d="m1.3 20.4q0-0.3-0.1-0.5l10.5-15.3q0.6-0.8 1.4-1.4c2.3-1.6 5.6-1 7.2 1.4l10.5 15.3q-0.1 0.3-0.1 0.5-0.1-0.1-0.2-0.2l-10.5-15.4q-0.5-0.8-1.3-1.3c-2.2-1.5-5.2-0.9-6.7 1.3l-10.5 15.4q-0.1 0.1-0.2 0.2z"/>
	<path id="Layer" class="s10" d="m27.4 26.2q-0.2 0.2-0.4 0.4-0.6 0.1-1.2-0.1l-5.2-1c-1-0.2-1.8-0.8-2.4-1.6l-2.2-3.3-2.2 3.3c-0.6 0.8-1.4 1.4-2.4 1.6l-5.2 1q-0.4 0.1-0.8 0.1-0.2 0-0.4 0-0.2-0.2-0.4-0.4 0.4 0.1 0.8 0.1 0.4 0 0.7-0.1l5.2-1c0.9-0.2 1.7-0.7 2.2-1.5l2.4-3.5q0 0 0-0.1c0.1 0 0.2 0 0.2 0.1l2.4 3.5c0.5 0.8 1.3 1.3 2.1 1.5l5.3 1q0.3 0.1 0.6 0.1 0.5 0 0.9-0.1z"/>
	<path id="Layer" class="s11" d="m2.1 22.4q-0.1-0.2-0.2-0.5 0.2-0.6 0.5-1.1l10.5-15.4q0.4-0.6 1-1c1.7-1.1 4-0.7 5.2 1l10.5 15.4q0.3 0.5 0.5 1.1-0.1 0.3-0.2 0.6-0.1-0.8-0.6-1.5l-10.5-15.4q-0.4-0.5-0.9-0.9c-1.5-1-3.6-0.6-4.7 0.9l-10.5 15.4q-0.5 0.7-0.6 1.5z"/>
	<path id="Layer" fill-rule="evenodd" class="s12" d="m5.5 25.1q-0.7 0-1.3-0.4c-1-0.6-1.3-2-0.6-3l10.6-15.4q0.2-0.4 0.5-0.6c1.1-0.7 2.4-0.5 3.1 0.6l10.6 15.4q0.4 0.5 0.4 1.2c0 1.2-1 2.2-2.3 2.2q-0.2 0-0.4 0l-5.2-1.1c-0.6-0.1-1.1-0.4-1.4-0.9l-3.5-5.2-3.5 5.2c-0.3 0.5-0.8 0.8-1.4 0.9l-5.2 1.1q-0.2 0-0.4 0zm0-0.3q0.1 0 0.3 0l5.3-1.1c0.4-0.1 0.9-0.4 1.1-0.8l3.7-5.4q0 0 0 0c0.1-0.1 0.2-0.1 0.2 0l3.7 5.4c0.2 0.4 0.7 0.7 1.1 0.8l5.3 1.1q0.2 0 0.3 0 0.6 0 1.1-0.3c0.9-0.6 1.1-1.8 0.5-2.6l-10.6-15.5q-0.2-0.3-0.4-0.5c-0.9-0.5-2.1-0.3-2.7 0.5l-10.5 15.5c-0.4 0.5-0.4 1.3-0.1 1.9 0.3 0.6 1 1 1.7 1z"/>
	<path id="Layer" fill-rule="evenodd" class="s13" d="m5.6 23.6q-0.1 0.1-0.1 0.1-0.3 0-0.5-0.2c-0.3-0.2-0.4-0.7-0.1-1l10.5-15.4q0.1-0.1 0.2-0.2c0.3-0.2 0.8-0.2 1 0.2l10.5 15.4q0.2 0.3 0.2 0.6c-0.1 0.4-0.5 0.6-0.9 0.5l-5.2-1q-0.3-0.1-0.5-0.3l-4.4-6.6q0 0-0.1-0.1c-0.2-0.1-0.4 0-0.5 0.1l-4.4 6.6q-0.2 0.2-0.5 0.3zm0-0.4l5.2-1q0.1 0 0.2-0.2l4.4-6.5q0.1-0.1 0.2-0.2c0.4-0.2 0.8-0.2 1 0.2l4.4 6.5q0.1 0.2 0.3 0.2l5.2 1q0.2 0.1 0.3 0c0.2-0.1 0.2-0.4 0.1-0.6l-10.5-15.4q-0.1 0-0.2-0.1c-0.1-0.1-0.4-0.1-0.5 0.1l-10.5 15.4c-0.1 0.2-0.1 0.3 0 0.5 0 0.1 0.2 0.2 0.4 0.1z"/>
	<path id="Layer" class="s14" d="m16 13.3l-5.5 8.2-4.3 0.9 9.8-14.3 9.8 14.3-4.3-0.9z"/>
</svg>